<?xml version="1.0" encoding="UTF-8"?><svg xmlns="http://www.w3.org/2000/svg" viewBox="0 0 500 372.61"><defs><style>.cls-1{fill:#ebebeb;}.cls-2{fill:#ebb376;}.cls-3{fill:#f5f5f5;}.cls-4,.cls-5,.cls-6,.cls-7,.cls-8,.cls-9,.cls-10,.cls-11,.cls-12,.cls-13,.cls-14{fill:#fff;}.cls-15{fill:#d58745;}.cls-16{fill:#e0e0e0;}.cls-17{fill:#407bff;}.cls-18{fill:#263238;}.cls-5,.cls-6,.cls-7,.cls-8,.cls-9,.cls-11,.cls-19{isolation:isolate;}.cls-5,.cls-10,.cls-19{opacity:.2;}.cls-6{opacity:.7;}.cls-7,.cls-12{opacity:.5;}.cls-8{opacity:.6;}.cls-9{opacity:.4;}.cls-20{fill:none;stroke:#263238;stroke-linecap:round;stroke-linejoin:round;stroke-width:.53px;}.cls-11{opacity:.1;}.cls-13{opacity:.8;}.cls-14{opacity:.3;}</style></defs><g id="Background_Complete"><g><rect class="cls-1" y="327.45" width="500" height=".25"/><rect class="cls-1" x="416.78" y="343.54" width="33.12" height=".25"/><rect class="cls-1" x="322.53" y="346.26" width="8.69" height=".25"/><rect class="cls-1" x="396.59" y="334.26" width="19.19" height=".25"/><rect class="cls-1" x="52.46" y="335.94" width="43.19" height=".25"/><rect class="cls-1" x="104.56" y="335.94" width="6.33" height=".25"/><rect class="cls-1" x="131.47" y="340.16" width="93.68" height=".25"/><path class="cls-1" d="M237.01,282.85H43.91c-3.15,0-5.71-2.56-5.71-5.71V5.71c0-3.15,2.56-5.71,5.71-5.71H237.01c3.15,0,5.71,2.56,5.71,5.71V277.14c0,3.15-2.56,5.71-5.71,5.71ZM43.91,.25c-3.01,0-5.46,2.45-5.46,5.46V277.14c0,3.01,2.45,5.46,5.46,5.46H237.01c3.01,0,5.46-2.45,5.46-5.46V5.71c0-3.01-2.45-5.46-5.46-5.46H43.91Z"/><path class="cls-1" d="M453.31,282.85h-193.1c-3.15,0-5.71-2.56-5.71-5.71V5.71c0-3.15,2.56-5.71,5.71-5.71h193.1c3.15,0,5.71,2.56,5.71,5.71V277.14c0,3.15-2.56,5.71-5.71,5.71ZM260.21,.25c-3.01,0-5.46,2.45-5.46,5.46V277.14c0,3.01,2.45,5.46,5.46,5.46h193.1c3.01,0,5.46-2.45,5.46-5.46V5.71c0-3.01-2.45-5.46-5.46-5.46h-193.1Z"/></g><g><g><rect class="cls-16" x="316.8" y="83.66" width="130.44" height="6.7"/><rect class="cls-1" x="322.8" y="58.96" width="5.75" height="24.7"/><rect class="cls-1" x="350.59" y="58.96" width="5.75" height="24.7"/><rect class="cls-1" x="384.28" y="58.65" width="5.75" height="24.7" transform="translate(-6.43 66.78) rotate(-9.78)"/><rect class="cls-1" x="329.92" y="62.21" width="5.75" height="21.45"/><rect class="cls-1" x="343.13" y="62.21" width="5.75" height="21.45"/><rect class="cls-1" x="376.47" y="62.21" width="5.75" height="21.45"/><rect class="cls-1" x="360.53" y="61.85" width="5.75" height="21.45" transform="translate(-7.09 80.55) rotate(-12.53)"/><rect class="cls-1" x="337.77" y="57.73" width="2.87" height="25.93"/><rect class="cls-1" x="371.95" y="57.73" width="2.87" height="25.93"/><rect class="cls-1" x="406.72" y="64.11" width="28" height="19.33"/></g><g><rect class="cls-16" x="316.8" y="133.69" width="130.44" height="6.7" transform="translate(764.04 274.09) rotate(180)"/><rect class="cls-1" x="435.49" y="108.99" width="5.75" height="24.7" transform="translate(876.72 242.68) rotate(180)"/><rect class="cls-1" x="407.7" y="108.99" width="5.75" height="24.7" transform="translate(821.15 242.68) rotate(180)"/><rect class="cls-1" x="374.02" y="108.68" width="5.75" height="24.7" transform="translate(727.75 304.32) rotate(-170.22)"/><rect class="cls-1" x="428.37" y="112.24" width="5.75" height="21.45" transform="translate(862.48 245.94) rotate(180)"/><rect class="cls-1" x="415.16" y="112.24" width="5.75" height="21.45" transform="translate(836.07 245.94) rotate(180)"/><rect class="cls-1" x="381.82" y="112.24" width="5.75" height="21.45" transform="translate(769.39 245.94) rotate(180)"/><rect class="cls-1" x="397.76" y="111.88" width="5.75" height="21.45" transform="translate(765.14 329.18) rotate(-167.47)"/><rect class="cls-1" x="423.4" y="107.76" width="2.87" height="25.93" transform="translate(849.67 241.46) rotate(180)"/><rect class="cls-1" x="389.22" y="107.76" width="2.87" height="25.93" transform="translate(781.31 241.46) rotate(180)"/><rect class="cls-1" x="329.32" y="114.14" width="28" height="19.33" transform="translate(686.63 247.61) rotate(180)"/></g><g><polygon class="cls-16" points="53 211.05 53 328.05 59 328.05 59 223.05 165 223.05 165 328.05 172 328.05 172 211.05 53 211.05"/><polygon class="cls-3" points="119 211.05 119 328.05 125 328.05 125 223.05 231 223.05 231 328.05 238 328.05 238 211.05 119 211.05"/></g><g><path class="cls-16" d="M156.88,167.45c-1.34-2.2-3.54-.29-3.54-.29,.31-4.22-3.57-7.11-3.57-7.11,0,0,4.51,0,5.14-4.31,.63-4.31-1.57-2.3-3.64-2.33-2.07-.03-4.23,6.01-1.5,9.41,2.73,3.4,2,9.19-4.3,14.77-1.54,1.36-2.58,3.17-3.29,5.13,.48-5.12,.74-12.34-.76-17.16-2.56-8.18,2.32-10.39,3.74-14.48,1.42-4.09-3.74-7.55-3.74-7.55,0,0,4.84-2.2,2.48-4.72-2.36-2.52-7.24-2.18-7.24,1.12s3.31,4.55,3.31,4.55c0,0,3.78,3.93,3.78,5.98s-3.78,6.45-3.78,6.45c0,0,1.73-3.77-1.73-3.93-3.46-.16-4.56,4.4-3.15,6.45,1.42,2.05,3.78,.31,3.78,.31,0,0,.27,4.41,1.08,7.08,.35,1.18,.19,5.79-.11,10.6-.7-1.73-1.68-3.32-3.07-4.55-6.3-5.58-7.03-11.37-4.3-14.77,2.73-3.4,.57-9.44-1.5-9.41-2.07,.03-4.27-1.97-3.64,2.33s5.14,4.31,5.14,4.31c0,0-3.88,2.89-3.57,7.11,0,0-2.2-1.92-3.54,.29-2.39,3.93,3.15,6.37,4.08,4.44,0,0,11.74,8.31,8.91,20.27l.66,.97c-.08,.97-.14,1.55-.14,1.55l.92-.4,1.04,1.54c-.05,2.99,.27,5.2,.27,5.2l2.81-4.14c-2.83-11.96,8.91-20.27,8.91-20.27,.93,1.94,6.47-.5,4.08-4.44Z"/><polygon class="cls-1" points="149.77 211.05 145.98 189.36 147.05 183.05 135.12 183.05 136.19 189.36 132.41 211.05 149.77 211.05"/></g></g></g><g id="Shadow"><ellipse id="_Path_" class="cls-3" cx="250" cy="361.29" rx="193.89" ry="11.32"/></g><g id="Files"><g><g><rect class="cls-17" x="256.95" y="41.29" width="35.01" height="45.72" transform="translate(63.46 -122.72) rotate(28.37)"/><rect class="cls-8" x="256.95" y="41.29" width="35.01" height="45.72" transform="translate(63.46 -122.72) rotate(28.37)"/></g><g><rect class="cls-17" x="269.37" y="49.59" width="24.56" height="2.47" transform="translate(57.99 -127.74) rotate(28.37)"/><rect class="cls-17" x="267.32" y="53.4" width="24.56" height="2.47" transform="translate(59.55 -126.31) rotate(28.37)"/><rect class="cls-17" x="265.26" y="57.2" width="24.56" height="2.47" transform="translate(61.12 -124.88) rotate(28.37)"/><rect class="cls-17" x="263.2" y="61.01" width="24.56" height="2.47" transform="translate(62.68 -123.44) rotate(28.37)"/><rect class="cls-17" x="261.15" y="64.81" width="24.56" height="2.47" transform="translate(64.24 -122.01) rotate(28.37)"/><rect class="cls-17" x="259.09" y="68.62" width="24.56" height="2.47" transform="translate(65.8 -120.57) rotate(28.37)"/><rect class="cls-17" x="257.04" y="72.42" width="24.56" height="2.47" transform="translate(67.36 -119.14) rotate(28.37)"/><rect class="cls-17" x="255.5" y="74.17" width="15.9" height="2.47" transform="translate(67.49 -116.15) rotate(28.37)"/></g></g><g><path class="cls-17" d="M218.89,52.63c-12.15-1.25-21.02-12.14-19.77-24.29,1.25-12.15,12.14-21.02,24.29-19.77,12.15,1.25,21.02,12.14,19.77,24.29-1.25,12.15-12.14,21.02-24.29,19.77Z"/><circle class="cls-14" cx="221.15" cy="30.6" r="20.21" transform="translate(-1.69 17.04) rotate(-4.4)"/><path class="cls-4" d="M228,24.07c-2.33-1.66-5.58-7.3-5.58-7.33l-2.1,20.44c.05-.46-1.78-.93-2.99-1.05-2.93-.3-5.4,1.07-5.6,3.06-.2,1.99,2.05,3.84,4.98,4.14,2.93,.3,5.37-1.08,5.57-3.06,.03-.3-.21-.61-.18-.89l1.62-15.75s1.62,2.04,4.34,3.29c2.21,1.02,3.04,4.08,3.04,4.08,0,0,.5-4.37-3.1-6.93Z"/><ellipse class="cls-12" cx="218.82" cy="25.95" rx="15.94" ry="13.21" transform="translate(12.62 103.65) rotate(-27.41)"/></g><g><rect class="cls-17" x="131.56" y="3.73" width="47.75" height="35.75" transform="translate(-1.24 12.66) rotate(-4.65)"/><g><rect class="cls-17" x="133.99" y="6.04" width="43" height="31" transform="translate(-1.23 12.67) rotate(-4.65)"/><rect class="cls-12" x="133.99" y="6.04" width="43" height="31" transform="translate(-1.23 12.67) rotate(-4.65)"/><polygon class="cls-17" points="177.84 31.05 178.18 35.25 135.32 38.73 134.1 23.71 142.31 15.25 156.48 26.99 163.02 21.36 177.84 31.05"/><polygon class="cls-14" points="177.84 31.05 178.18 35.25 135.32 38.73 134.1 23.71 142.31 15.25 156.48 26.99 163.02 21.36 177.84 31.05"/><g><path class="cls-17" d="M169.19,13.07c.15,1.91-1.26,3.58-3.17,3.73-1.91,.15-3.58-1.26-3.73-3.17s1.26-3.58,3.17-3.73c1.91-.15,3.58,1.26,3.73,3.17Z"/><path class="cls-14" d="M169.19,13.07c.15,1.91-1.26,3.58-3.17,3.73-1.91,.15-3.58-1.26-3.73-3.17s1.26-3.58,3.17-3.73c1.91-.15,3.58,1.26,3.73,3.17Z"/></g></g></g><g><path class="cls-17" d="M86.39,43.92l-1.84-1.13c-.67-.41-1.5-.48-2.2-.19l-8.17,3.42c-.7,.29-1.19,.92-1.3,1.66l-.3,2.02c-.11,.74-.6,1.36-1.3,1.66l-4.88,2.04c-1.16,.49-1.65,1.81-1.09,2.95l13,26.64c.56,1.14,1.95,1.68,3.12,1.19l38.66-16.17c1.16-.49,1.65-1.81,1.09-2.95l-13-26.64c-.56-1.14-1.95-1.68-3.12-1.19l-16.47,6.89c-.7,.29-1.53,.22-2.2-.19Z"/><path class="cls-17" d="M110.01,38.21l-35.42,14.81c-1.48,.62-2.28,2.35-1.8,3.87l7.76,24.53c.48,1.52,2.07,2.25,3.54,1.63l35.42-14.81c1.48-.62,2.28-2.35,1.8-3.87l-7.76-24.53c-.48-1.52-2.07-2.25-3.54-1.63Z"/><path class="cls-12" d="M110.01,38.21l-35.42,14.81c-1.48,.62-2.28,2.35-1.8,3.87l7.76,24.53c.48,1.52,2.07,2.25,3.54,1.63l35.42-14.81c1.48-.62,2.28-2.35,1.8-3.87l-7.76-24.53c-.48-1.52-2.07-2.25-3.54-1.63Z"/></g></g><g id="Cloud"><g><path class="cls-17" d="M238.48,97.08c.43-2.03,.67-4.13,.67-6.28,0-16.47-13.35-29.82-29.82-29.82-1.88,0-3.72,.18-5.51,.51-.76-.14-1.54-.01-2.32-.09-5.54-12.15-17.77-20.35-31.99-20.35h-11c-19.42,0-35.17,15.5-35.17,34.92,0,.26,.01,.39,.02,.65-13.85,2.54-24.35,14.38-24.35,28.97,0,16.43,13.32,29.46,29.75,29.46h108c10.63,0,19.25-8.4,19.25-19.03,0-10.05-7.7-18.07-17.52-18.94Z"/><path class="cls-7" d="M238.48,97.08c.43-2.03,.67-4.13,.67-6.28,0-16.47-13.35-29.82-29.82-29.82-1.88,0-3.72,.18-5.51,.51-.76-.14-1.54-.01-2.32-.09-5.54-12.15-17.77-20.35-31.99-20.35h-11c-19.42,0-35.17,15.5-35.17,34.92,0,.26,.01,.39,.02,.65-13.85,2.54-24.35,14.38-24.35,28.97,0,16.43,13.32,29.46,29.75,29.46h108c10.63,0,19.25-8.4,19.25-19.03,0-10.05-7.7-18.07-17.52-18.94Z"/><path class="cls-9" d="M238.48,97.08c.43-2.03,.67-4.13,.67-6.28,0-16.47-13.35-29.82-29.82-29.82-1.88,0-3.72,.18-5.51,.51-.76-.14-1.54-.01-2.32-.09-5.54-12.15-17.77-20.35-31.99-20.35-1.87,0,1.87,0,0,0-19.42,0-35.17,15.5-35.17,34.92,0,.26,.01,.39,.02,.65-13.85,2.54-24.35,14.38-24.35,28.97,0,16.43,13.32,29.46,29.75,29.46h97c10.63,0,19.25-8.4,19.25-19.03,0-10.05-7.7-18.07-17.52-18.94Z"/></g><g><path class="cls-17" d="M267.67,184.05h-33.67c-27.57,0-50-22.43-50-50v-10h-10v10c0,33.08,26.92,60,60,60h33.67v-10Z"/><polygon class="cls-17" points="178.88 117.39 170.21 126.05 187.54 126.05 178.88 117.39"/></g></g><g id="Stuff"><g><g><g><path class="cls-17" d="M104.28,312.38l-5.94-18.33s8.83-8.33,21.67-5.83l5,17.17-20.72,7Z"/><path class="cls-6" d="M104.28,312.38l-5.94-18.33s8.83-8.33,21.67-5.83l5,17.17-20.72,7Z"/></g><g class="cls-19"><path d="M101.14,298.38s.83-.99,2.37-2.18c.76-.6,1.71-1.22,2.77-1.82,.54-.29,1.1-.58,1.68-.84,.6-.23,1.18-.52,1.81-.7,.62-.2,1.24-.4,1.87-.52,.31-.07,.62-.14,.93-.21,.31-.04,.62-.08,.93-.12,.3-.03,.6-.08,.89-.1,.29,0,.58-.01,.86-.02,.56-.02,1.09-.02,1.57,.05,.49,.05,.93,.09,1.32,.16,.38,.09,.72,.17,.99,.23,.55,.13,.85,.22,.85,.22,0,0-.33,0-.88-.03-.28-.02-.61-.03-1-.05-.39,.01-.82,.03-1.29,.05-.47,0-.98,.06-1.51,.12-.54,.05-1.1,.12-1.67,.24-.29,.05-.58,.11-.88,.16-.29,.08-.59,.15-.88,.23-.6,.13-1.19,.33-1.78,.53-.6,.17-1.17,.43-1.75,.64-.56,.25-1.13,.48-1.66,.73-.52,.27-1.05,.5-1.52,.77-.48,.25-.93,.5-1.34,.74-.82,.48-1.5,.89-1.96,1.21-.46,.31-.73,.49-.73,.49Z"/><path d="M101.67,300.06s.23-.2,.67-.51c.44-.3,1.06-.75,1.85-1.22,.79-.47,1.73-.99,2.77-1.47,1.04-.5,2.18-.95,3.34-1.36,.59-.18,1.17-.37,1.76-.53,.59-.15,1.16-.3,1.74-.4,.57-.1,1.12-.22,1.65-.26,.53-.05,1.02-.12,1.49-.12,.93-.03,1.69,.01,2.23,.08,.53,.05,.84,.1,.84,.1,0,0-.31,.04-.84,.09-.26,.03-.59,.04-.95,.1-.36,.06-.77,.14-1.22,.2-.44,.06-.92,.19-1.43,.28-.51,.08-1.03,.26-1.57,.38-.55,.11-1.1,.33-1.67,.47-.57,.16-1.13,.36-1.7,.54-2.27,.76-4.5,1.69-6.17,2.4-.83,.36-1.54,.65-2.02,.88l-.77,.34Z"/><path d="M103.08,303.46s.21-.21,.61-.55c.41-.33,.99-.8,1.73-1.31,.74-.5,1.63-1.07,2.62-1.59,.99-.54,2.09-1.02,3.21-1.47,1.14-.4,2.29-.76,3.41-.97,.56-.09,1.09-.22,1.61-.25,.52-.04,1.01-.1,1.46-.09,.45,0,.87,.02,1.23,.04,.37,.02,.68,.09,.94,.12,.52,.08,.81,.14,.81,.14,0,0-.3,.03-.82,.05-.26,.02-.57,0-.93,.06-.36,.05-.76,.11-1.19,.16-.43,.05-.9,.18-1.39,.26-.49,.07-1,.25-1.53,.37-.53,.11-1.06,.33-1.61,.48-.55,.17-1.09,.38-1.64,.57-.54,.22-1.09,.41-1.62,.64-.52,.24-1.06,.43-1.55,.68-1.01,.44-1.92,.91-2.72,1.3-.79,.4-1.46,.73-1.91,.98-.46,.25-.72,.39-.72,.39Z"/><path d="M103.92,305.8s.81-.85,2.25-1.86c.72-.5,1.6-1.04,2.58-1.54,.49-.25,1.01-.48,1.55-.71,.55-.19,1.09-.42,1.66-.59,.57-.16,1.13-.34,1.71-.44,.57-.13,1.13-.22,1.69-.27,.55-.07,1.09-.11,1.6-.09,.51,0,.99-.01,1.43,.06,.44,.05,.84,.1,1.19,.16,.35,.09,.65,.16,.9,.22,.5,.13,.77,.21,.77,.21,0,0-.3,0-.8-.02-.25-.01-.56-.03-.91-.05-.35,.02-.75,.04-1.17,.05-.43,0-.89,.07-1.37,.11-.49,.03-.99,.12-1.51,.22-.53,.07-1.06,.21-1.6,.34-.55,.11-1.08,.29-1.63,.45-1.09,.32-2.15,.73-3.13,1.14-.98,.42-1.89,.84-2.66,1.23-.77,.39-1.42,.72-1.85,.97-.44,.25-.7,.4-.7,.4Z"/><path d="M105.08,308.91s.2-.21,.59-.54c.39-.33,.94-.8,1.65-1.31,.71-.5,1.56-1.07,2.53-1.59,.48-.27,.98-.53,1.5-.77,.52-.25,1.07-.46,1.61-.69,.55-.19,1.11-.38,1.66-.55,.56-.15,1.11-.3,1.66-.39,.55-.08,1.07-.2,1.58-.22,.51-.03,.98-.07,1.42-.06,.44,.02,.85,.05,1.2,.08,.35,.03,.66,.12,.91,.16,.5,.1,.78,.18,.78,.18,0,0-.29,.02-.8,.02-.25,0-.55-.02-.9,.02-.35,.04-.74,.09-1.16,.12-.42,.05-.87,.15-1.35,.22-.48,.07-.97,.23-1.49,.34-.52,.11-1.03,.32-1.57,.45-.53,.17-1.06,.37-1.59,.56-.52,.21-1.06,.4-1.57,.63-.51,.23-1.02,.43-1.5,.67-.97,.44-1.86,.91-2.63,1.29-.76,.41-1.4,.73-1.84,.98l-.7,.39Z"/></g><path class="cls-17" d="M101.68,312.51l12.34-9.35c.3-.23,.69-.32,1.07-.25l14.07,2.68c1.25,.24,1.51,1.91,.39,2.51l-11.62,6.29c-.19,.1-.4,.16-.61,.16l-14.8,.38c-1.31,.03-1.9-1.63-.85-2.43Z"/></g><g><path class="cls-17" d="M123.89,318.05s18.94-45.83,22.28-48.67c3.33-2.83,24.5,9.47,24.5,9.47l-18.83,48.37-27.94-9.17Z"/><path class="cls-19" d="M129.33,317.71s18.13-43.78,20.83-45.67,18.17,6.17,18.17,6.17c0,0-16.11-9.83-21.06-8.17-4.94,1.67-21.78,46.67-21.78,46.67l3.83,1Z"/></g><g><rect class="cls-18" x="87.06" y="313.55" width="80.44" height="47.5"/><rect class="cls-5" x="87.06" y="313.55" width="80.44" height="47.5"/><rect class="cls-9" x="117.56" y="313.55" width="49.94" height="47.5"/><polygon class="cls-18" points="117.56 314.05 136.5 298.8 178.75 301.67 167.5 314.05 117.56 314.05"/><polygon class="cls-18" points="117.56 314.05 103.25 297.55 73 300.8 87.06 313.55 117.56 314.05"/><polygon class="cls-11" points="117.56 314.05 103.25 297.55 73 300.8 87.06 313.55 117.56 314.05"/><polygon class="cls-9" points="117.56 314.05 136.5 298.8 178.75 301.67 167.5 314.05 117.56 314.05"/></g><g><path class="cls-17" d="M152.27,335.41c-7.05,0-12.77,5.72-12.77,12.77s5.72,12.77,12.77,12.77,12.77-5.72,12.77-12.77-5.72-12.77-12.77-12.77Zm0,17.87c-2.81,0-5.09-2.28-5.09-5.09s2.28-5.09,5.09-5.09,5.09,2.28,5.09,5.09-2.28,5.09-5.09,5.09Z"/><path class="cls-6" d="M163.79,342.64c-.23-.47-.49-.93-.78-1.37-.37-.59-.8-1.15-1.28-1.67-2.13-2.35-5.12-3.9-8.47-4.14-.33-.04-.66-.05-.99-.05-7.05,0-12.77,5.72-12.77,12.78,0,1.07,.13,2.11,.38,3.1,.12,.49,.27,.97,.46,1.44,.26,.71,.59,1.39,.98,2.03,2.05,3.42,5.66,5.79,9.84,6.15,.37,.03,.74,.05,1.11,.05,7.06,0,12.78-5.72,12.78-12.77,0-1.99-.45-3.87-1.26-5.55Zm-11.52,10.64c-.16,0-.32-.01-.48-.03-1.92-.17-3.53-1.42-4.23-3.13-.12-.29-.21-.59-.28-.9-.03-.19-.06-.38-.07-.58-.02-.15-.03-.3-.03-.45,0-2.82,2.28-5.1,5.09-5.1,.12,0,.24,0,.36,.02,1.09,.07,2.08,.48,2.87,1.12,.2,.17,.39,.35,.56,.55,.15,.16,.28,.33,.4,.51,.58,.82,.91,1.82,.91,2.9,0,2.81-2.28,5.09-5.1,5.09Z"/><path class="cls-10" d="M151.79,353.25l-.63,7.66c-4.18-.36-7.79-2.73-9.84-6.15l6.24-4.64c.7,1.71,2.31,2.96,4.23,3.13Z"/><path class="cls-10" d="M161.73,339.6l-6.23,4.63c-.79-.64-1.78-1.05-2.87-1.12l.63-7.65c3.35,.24,6.34,1.79,8.47,4.14Z"/><path class="cls-10" d="M147.28,349.22l-6.94,3.51c-.19-.47-.34-.95-.46-1.44l7.33-2.65c0,.2,.04,.39,.07,.58Z"/><path class="cls-10" d="M163.79,342.64l-7.33,2.65c-.12-.18-.25-.35-.4-.51l6.95-3.51c.29,.44,.55,.9,.78,1.37Z"/></g><g><path class="cls-17" d="M161.6,338.96c-7.05,0-10.83,4.92-8.44,11,2.39,6.08,10.05,11,17.11,11s10.83-4.92,8.44-11c-2.39-6.08-10.05-11-17.11-11Zm6.06,15.39c-2.81,0-5.87-1.96-6.82-4.39-.95-2.42,.55-4.39,3.37-4.39s5.87,1.96,6.82,4.39c.95,2.42-.55,4.39-3.37,4.39Z"/><path class="cls-11" d="M175.57,345.18c-.39-.4-.81-.8-1.24-1.18-.57-.51-1.19-.99-1.85-1.44-2.93-2.02-6.44-3.36-9.87-3.57-.34-.03-.68-.04-1.01-.04-7.05,0-10.83,4.93-8.43,11.01,.36,.92,.85,1.82,1.43,2.67,.29,.42,.6,.84,.95,1.24,.5,.61,1.06,1.2,1.67,1.75,3.21,2.95,7.62,4.99,11.93,5.3,.38,.03,.76,.04,1.13,.04,7.06,0,10.84-4.93,8.45-11-.68-1.71-1.76-3.33-3.14-4.78Zm-7.91,9.16c-.16,0-.32,0-.49-.03-1.98-.15-4.01-1.22-5.29-2.7-.22-.25-.41-.51-.59-.78-.09-.16-.19-.33-.27-.5-.07-.13-.13-.26-.18-.39-.96-2.43,.55-4.39,3.36-4.39,.12,0,.24,0,.37,.02,1.11,.06,2.24,.41,3.25,.96,.26,.15,.51,.3,.75,.47,.2,.14,.39,.28,.57,.44,.86,.71,1.53,1.57,1.89,2.5,.95,2.42-.55,4.38-3.37,4.38Z"/><path class="cls-10" d="M167.17,354.32l1.97,6.6c-4.3-.31-8.72-2.35-11.93-5.3l4.67-4c1.28,1.47,3.31,2.55,5.29,2.7Z"/><path class="cls-10" d="M172.48,342.56l-4.66,3.99c-1.01-.55-2.14-.9-3.25-.96l-1.97-6.59c3.43,.21,6.95,1.54,9.87,3.57Z"/><path class="cls-10" d="M161.3,350.85l-5.75,3.02c-.35-.4-.66-.82-.95-1.24l6.43-2.28c.08,.17,.17,.34,.27,.5Z"/><path class="cls-10" d="M175.57,345.18l-6.43,2.28c-.18-.16-.37-.3-.57-.44l5.76-3.02c.44,.38,.86,.78,1.24,1.18Z"/></g></g></g><g id="Chair"><g><polygon class="cls-17" points="372.4 275.05 372.76 290.62 374.4 361.05 379.81 361.05 381.44 290.62 381.8 275.05 372.4 275.05"/><polygon class="cls-9" points="372.4 275.05 372.76 290.62 374.4 361.05 379.81 361.05 381.44 290.62 381.8 275.05 372.4 275.05"/><polygon class="cls-19" points="372.4 275.05 372.76 291.05 381.44 291.05 381.8 275.05 372.4 275.05"/><g><g><polygon class="cls-17" points="343.02 360.8 348.02 276.15 356.19 276.15 349.2 360.8 343.02 360.8"/><polygon class="cls-7" points="349.21 360.8 343.03 360.8 347.57 283.75 348.02 276.05 356.19 276.05 355.56 283.75 349.21 360.8"/><polygon class="cls-19" points="356.19 276.05 355.56 284.05 347.57 284.05 348.02 276.05 356.19 276.05"/></g><g><polygon class="cls-17" points="405.02 360.8 398.02 276.15 406.19 276.15 411.19 360.8 405.02 360.8"/><polygon class="cls-7" points="405 360.8 398.65 283.75 398.02 276.05 406.19 276.05 406.64 283.75 411.18 360.8 405 360.8"/><polygon class="cls-19" points="398.02 276.05 398.65 284.05 406.64 284.05 406.19 276.05 398.02 276.05"/></g></g><path class="cls-17" d="M343.65,267.38h66.92v6.69c0,2.76-2.24,5-5,5h-56.92c-2.76,0-5-2.24-5-5v-6.69h0Z" transform="translate(754.21 546.45) rotate(180)"/><g><rect class="cls-17" x="340.44" y="273.23" width="73.33" height="5.84" rx="2.01" ry="2.01" transform="translate(754.21 552.3) rotate(180)"/><rect class="cls-8" x="340.44" y="273.23" width="73.33" height="5.84" rx="2.01" ry="2.01" transform="translate(754.21 552.3) rotate(180)"/></g></g></g><g id="Character"><g id="_Group_"><path class="cls-18" d="M353.09,172.55s-.28,.76-.79,2.01c-.52,1.3-1.29,3.13-2.24,5.19-2.3,5.01-5.64,11.36-9.13,14.79-1.03,1.01-2.07,1.77-3.1,2.16-3.72,1.43-13.05,1.69-21.38,1.61-8.2-.07-15.45-.5-15.45-.5v-6.31l27.39-7.3s14.44-26.06,22.98-29.92l1.72,18.27Z"/><path class="cls-19" d="M352.3,174.56c-.52,1.3-1.29,3.13-2.24,5.19-2.3,5.01-5.64,11.36-9.13,14.79-3.55-13.08,9.58-25.53,9.58-25.53l1.79,5.55Z"/><polygon class="cls-2" points="348.76 353.83 340.79 352.73 339.69 333.8 347.64 334.9 348.76 353.83"/><polygon class="cls-19" points="347.64 334.9 339.69 333.81 340.32 344.63 348.27 345.33 347.64 334.9"/><path class="cls-17" d="M348.44,242.51l1.94-12.18,44.66-2.67s4.75,25.34,1.1,32.09c-6.51,12.05-41.62,5.97-51.89,7.15,6.14,25.11,5.54,74.18,5.54,74.18l-14.67,1.12s-11.29-52.88-13.57-78c-1.54-16.95,12.51-16.53,26.89-21.69Z"/><polygon class="cls-17" points="351.51 341.77 333.88 342.93 332.37 335.38 351.74 334.48 351.51 341.77"/><polygon class="cls-2" points="330.38 346.76 322.36 347.35 317.34 329.05 325.35 328.48 330.38 346.76"/><path class="cls-17" d="M321.28,347.62s-.13-.01-.13-.02h0c-.03-.13-.41-2.38-1.38-2.91-.26-.13-.53-.15-.81-.04-.31,.1-.5,.4-.49,.73,.03,.5,.57,1.13,1.18,1.63-.84-.18-1.79-.28-2.25,.06-.19,.15-.29,.39-.27,.63-.03,.39,.17,.75,.5,.94,.5,.19,1.06,.18,1.56-.02,.68-.21,1.34-.49,1.96-.84,.02,0,.05,0,.07,0,.02-.02,.01-.04,.02-.06,.02-.02,.03-.05,.03-.08Zm-2.41-2.24c-.01-.11,.02-.25,.27-.36l.09-.03c.15-.04,.3-.02,.43,.06,.58,.31,.99,1.52,1.18,2.26-.06-.02-.11-.04-.18-.06-.79-.43-1.71-1.34-1.78-1.88Zm-1.05,2.93c-.2-.13-.32-.36-.31-.61-.01-.12,.04-.24,.13-.31,.45-.34,1.92-.05,2.98,.27-1.31,.66-2.34,.9-2.8,.64Z"/><polygon class="cls-19" points="325.35 328.48 317.34 329.06 320.21 339.52 328.13 338.55 325.35 328.48"/><path class="cls-17" d="M314.62,338.23l14.12-4.15s-8.43-47.58-16.98-64.08c.64-.21,1.49-.48,2.54-.79,1.89-.57,4.4-1.28,7.35-2.1,20.52-5.69,62.11-16.36,62.11-16.36l-19-17.73s-75.68,11.54-77.25,31.48c-.75,9.59,27.11,73.73,27.11,73.73Z"/><polygon class="cls-17" points="330.57 334.39 313.56 339.2 310.51 332.13 329.27 327.21 330.57 334.39"/><path class="cls-19" d="M314.3,269.21c1.89-.57,4.4-1.28,7.35-2.1-.59-4.84-.6-10.39,1.73-13.22,4.63-5.64,16.54-8.95,23.32-10.15,5.67-1,24.72-2.99,24.72-2.99,0,0-24.72-2.37-49.99,5-12.49,3.65-10.06,15.86-7.13,23.46Z"/><g><path class="cls-18" d="M397.52,240.39c2.98-2.28,.12-23.59,1.65-44.54,2.33-31.9,0-42.14-2.35-43.14-4.34-.75-8.72-1.19-13.12-1.3-6.44-.23-12.89-.09-19.31,.42-4.4,.54-8.75,1.43-13.01,2.65,0,0-10.52,33.49-3.8,81.75l49.95,4.17Z"/><path class="cls-13" d="M400.04,179.43s-.01,0,0,.01c-.13,4.69-.41,10.13-.87,16.41-1.53,20.95,1.33,42.25-1.65,44.54l-49.95-4.17c-3.7-26.56-2.17-48.65-.05-63.15,4.06-6.34,11.94-13.57,15.56-16.74,.84,1.04,2.27,1.93,4.6,2.39,3.89,.76,8.33-1.05,12.01-3.24,2.9,2.89,8.4,8.74,10.81,13.67,.26,.54,.49,1.06,.67,1.57,1.53,4.28,6.2-.99,8.58-7.88,.35,4.03,.49,9.45,.29,16.59Z"/></g><path class="cls-2" d="M381.32,129.76c-1.09,6.24-2.06,17.65,2.38,21.7,0,0-4.82,5.95-14.01,6.36-7.96,.35-5.31-5.94-5.31-5.94,6.9-1.8,6.61-6.95,5.3-11.75l11.64-10.37Z"/><path class="cls-19" d="M376.57,133.98l-6.89,6.14c.32,1.12,.54,2.26,.67,3.41,2.64-.44,6.21-3.42,6.43-6.2,.14-1.12,.06-2.26-.21-3.36Z"/><g><path class="cls-18" d="M366.19,113.61c3.45,2.34,1.88,6.31-5.92,12.51-3.17-4.11-3.69-12.09-1.17-14.09,2.52-2.01,4.09-.44,7.1,1.58Z"/><path class="cls-2" d="M381.02,120.03c-.37,8.43-.17,13.37-4.34,17.77-6.28,6.61-16.74,2.93-18.89-5.44-1.92-7.52-1-20.04,7.18-23.53,5.83-2.52,12.6,.17,15.12,6,.71,1.64,1.02,3.42,.93,5.2Z"/><path class="cls-18" d="M368.49,122.55c.01,.68-.35,1.25-.79,1.25-.45,0-.81-.54-.82-1.22-.01-.68,.34-1.24,.78-1.26,.44-.01,.78,.55,.84,1.23Z"/><path class="cls-18" d="M360.7,122.69c.01,.69-.35,1.25-.79,1.25-.45,0-.82-.53-.84-1.23-.01-.69,.35-1.25,.79-1.25,.45,0,.82,.54,.84,1.23Z"/><path class="cls-15" d="M363.25,122.97c-.78,2.11-1.85,4.1-3.18,5.92,1.26,1.11,3.29,.55,3.29,.55l-.11-6.47Z"/><path class="cls-18" d="M370.58,120.06c.09,0,.18-.01,.25-.06,.18-.14,.21-.39,.08-.57-.77-1.04-2.01-1.64-3.31-1.61-.21,.01-.38,.19-.37,.41v.03c.03,.22,.22,.38,.44,.37h0c1.02-.01,1.99,.47,2.6,1.29,.08,.09,.19,.14,.31,.14Z"/><path class="cls-18" d="M357.11,120.13c.16,0,.3-.09,.36-.23,.4-.94,1.23-1.63,2.23-1.86,.22-.03,.37-.24,.34-.46-.03-.22-.23-.37-.45-.34-1.27,.27-2.33,1.13-2.85,2.32-.09,.2,0,.44,.19,.53h0c.05,.03,.11,.04,.17,.04Z"/><path class="cls-18" d="M377.54,112.63c-3.91,1.42-3.36,5.65,2.69,13.57,4.08-3.21,6.55-10.82,4.59-13.37-1.96-2.55-3.85-1.43-7.27-.2Z"/><path class="cls-2" d="M385.15,126.7c-.55,2.05-1.89,3.8-3.73,4.86-2.45,1.38-4.34-.65-4.22-3.3,.11-2.4,1.51-6,4.23-6.29,2.72-.29,4.39,2.22,3.72,4.74Z"/><path class="cls-20" d="M369.68,130.84s-1.46,2.76-5.54,2.63"/><path class="cls-18" d="M368.99,111.29s1.26,8.44,9.38,8.97c8.12,.53,9.88-4.49,9.88-4.49,0,0-1.25,.19-2,.17,0,0,2.38-4.1,0-8.06-2.38-3.96-10.48-8.09-16.49-5.96,0,0-5.74-2.17-11.38,1.1s-4.63,10.4-4.63,10.4c0,0-.25-4.33,2.38-5.54,0,0-3.25,8.91,1.62,11.29,0,0,.48-8.77,11.24-7.88Z"/></g><path class="cls-2" d="M355.17,191.05s-29.02-.66-30.64-.82c-1.62-.16-8.5-4.04-9.96-4.2-1.46-.16-5.38,5.98-5.87,7.44-.49,1.45,10.97,5.34,12.1,5.17,1.13-.16,3.73-1.39,3.73-1.39l29.6,3.81,1.02-10Z"/><g><path class="cls-18" d="M271,197.05v2.65c0,.79,1.36,1.35,2.15,1.35h61.79c.79,0,2.06-.56,2.06-1.35v-2.65h-66Z"/><path class="cls-8" d="M271,197.05v2.65c0,.79,1.36,1.35,2.15,1.35h61.79c.79,0,2.06-.56,2.06-1.35v-2.65h-66Z"/><path class="cls-19" d="M271,197.05v2.65c0,.79,1.36,1.35,2.15,1.35h40.76c.79,0,2.1-.56,2.1-1.35v-2.65h-45Z"/><path class="cls-18" d="M261.09,164.56l7.36,33.48c.24,1.1,1.31,2.01,2.39,2.01h40.18c1.07,0,1.76-1.14,1.51-2.24l-7.35-33.12c-.25-1.09-1.31-1.64-2.39-1.64h-40.18c-1.08,0-1.76,.42-1.52,1.51Z"/><path class="cls-8" d="M261.09,164.56l7.36,33.48c.24,1.1,1.31,2.01,2.39,2.01h40.18c1.07,0,1.76-1.14,1.51-2.24l-7.35-33.12c-.25-1.09-1.31-1.64-2.39-1.64h-40.18c-1.08,0-1.76,.42-1.52,1.51Z"/><path class="cls-9" d="M261.09,164.56l7.36,33.48c.24,1.1,1.31,2.01,2.39,2.01h38.82c1.08,0,1.76-1.14,1.52-2.24l-7.36-33.12c-.24-1.09-1.31-1.64-2.39-1.64h-38.82c-1.08,0-1.76,.42-1.52,1.51Z"/><path class="cls-19" d="M284.73,186.02c-1.87,0-3.79-2.01-4.28-4.48-.48-2.48,.64-4.49,2.52-4.49,.35,0,.7,.07,1.04,.2,.44,1.93,1.75,3.55,3.19,4.09,.02,.07,.04,.13,.05,.2,.49,2.47-.64,4.48-2.52,4.48Z"/></g><path class="cls-19" d="M400.04,179.43s-.01,0,0,.01c-4.31,6.99-10.34,14.45-16.35,14.1-6.29-.37,.05-13.21,6.81-24.39,.26,.54,.49,1.06,.67,1.57,1.53,4.28,6.2-.99,8.58-7.88,.35,4.03,.49,9.45,.29,16.59Z"/><path class="cls-18" d="M396.82,152.71c14.83,5.34-11.2,45.51-19.28,49.64-8.08,4.14-29.35-.64-29.35-.64l1.32-12.41s16.83,1.13,20.18,.29c3.35-.85,11.3-17.96,15.88-26.05s11.25-10.84,11.25-10.84Z"/><polygon class="cls-10" points="351.51 341.77 333.88 342.93 332.37 335.38 351.74 334.48 351.51 341.77"/><polygon class="cls-10" points="330.57 334.39 313.56 339.2 310.51 332.13 329.27 327.21 330.57 334.39"/><path class="cls-18" d="M321.58,346.53l8.69-2.42c.3-.1,.62,.06,.72,.36h0l2.34,6.77c.21,.75-.22,1.53-.97,1.74-3.04,.8-4.54,1.02-8.37,2.06-2.35,.65-6.93,2.15-10.27,2.53-3.35,.38-3.64-2.94-2.25-3.4,3.28-1.1,7.2-4.51,8.91-6.84,.3-.4,.73-.69,1.21-.82Z"/><path class="cls-17" d="M340,352.75h0c0-.15-.14-2.42-.97-3.14-.23-.19-.6-.26-.89-.21-.33,.03-.63,.28-.68,.61-.07,.5,.3,1.22,.79,1.84-.78-.35-1.71-.65-2.23-.41-.22,.11-.38,.32-.4,.56-.11,.37,0,.77,.29,1.03,.45,.29,1,.4,1.53,.3,.71-.06,1.41-.2,2.09-.41,.02,0,.05,.01,.07,0,.02-.01,.02-.04,.03-.06,.02-.02,.19-.05,.2-.08,0,0,.17-.01,.17-.02h0Zm-2.21-2.67c0-.11,.07-.24,.34-.29h.09c.15-.02,.3,.03,.41,.13,.5,.43,.65,1.7,.68,2.46-.05-.03-.1-.06-.16-.09-.68-.59-1.4-1.66-1.35-2.21Zm-1.64,2.65c-.17-.17-.24-.42-.18-.66,.01-.12,.09-.22,.19-.27,.51-.24,1.89,.35,2.86,.88-1.42,.37-2.47,.39-2.87,.05Z"/><path class="cls-18" d="M340.19,351.77l9-.56c.31-.03,.59,.19,.63,.51h0l.88,7.11c.05,.78-.54,1.45-1.31,1.5-3.14,.14-4.65,.06-8.61,.27-2.43,.15-7.22,.66-10.58,.34-3.35-.32-2.94-3.63-1.5-3.79,3.44-.39,7.99-2.92,10.13-4.83,.38-.33,.85-.52,1.35-.55Z"/></g></g><g id="Table"><g><g><polygon class="cls-17" points="300.11 361.05 306.23 361.05 307.23 207.8 299.11 207.8 300.11 361.05"/><polygon class="cls-9" points="299.1 208.05 299.26 232.77 300.1 361.05 306.23 361.05 307.07 232.77 307.23 208.05 299.1 208.05"/><polygon class="cls-19" points="299.1 208.05 299.26 233.05 307.07 233.05 307.23 208.05 299.1 208.05"/></g><g><polygon class="cls-17" points="235.07 361.05 241.19 361.05 252.2 207.8 244.07 207.8 235.07 361.05"/><polygon class="cls-7" points="235.06 361.05 241.19 361.05 251.66 215.41 252.2 208.05 244.07 208.05 243.63 215.41 235.06 361.05"/><polygon class="cls-19" points="243.63 215.05 251.66 215.05 252.2 208.05 244.07 208.05 243.63 215.05"/></g><g><polygon class="cls-17" points="365.15 361.05 371.27 361.05 362.27 207.8 354.14 207.8 365.15 361.05"/><polygon class="cls-7" points="354.14 208.05 354.68 215.41 365.15 361.05 371.27 361.05 362.71 215.41 362.27 208.05 354.14 208.05"/><polygon class="cls-19" points="362.27 208.05 354.14 208.05 354.68 215.05 362.71 215.05 362.27 208.05"/></g><g><path class="cls-17" d="M239.79,203.96h126.76c1.19,0,2.16,.97,2.16,2.16v5.51H237.63v-5.51c0-1.19,.97-2.16,2.16-2.16Z" transform="translate(606.34 415.6) rotate(180)"/><path class="cls-8" d="M239.79,203.96h126.76c1.19,0,2.16,.97,2.16,2.16v5.51H237.63v-5.51c0-1.19,.97-2.16,2.16-2.16Z" transform="translate(606.34 415.6) rotate(180)"/></g><rect class="cls-19" x="237.63" y="203.96" width="131.08" height="3.84" transform="translate(606.34 411.76) rotate(180)"/><g><path class="cls-17" d="M233.83,204.96h138.68c1.19,0,2.16-.97,2.16-2.16h0c0-1.19-.97-2.16-2.16-2.16H233.83c-1.19,0-2.16,.97-2.16,2.16h0c0,1.19,.97,2.16,2.16,2.16Z"/><path class="cls-8" d="M233.83,204.96h138.68c1.19,0,2.16-.97,2.16-2.16h0c0-1.19-.97-2.16-2.16-2.16H233.83c-1.19,0-2.16,.97-2.16,2.16h0c0,1.19,.97,2.16,2.16,2.16Z"/></g></g></g></svg>